<?xml version="1.0" standalone="no"?>
<!DOCTYPE svg PUBLIC "-//W3C//DTD SVG 20010904//EN"
 "http://www.w3.org/TR/2001/REC-SVG-20010904/DTD/svg10.dtd">
<svg version="1.0" xmlns="http://www.w3.org/2000/svg"
 width="2048.000000pt" height="2048.000000pt" viewBox="0 0 2048.000000 2048.000000"
 preserveAspectRatio="xMidYMid meet">
<metadata>
Created by potrace 1.11, written by Peter Selinger 2001-2013
</metadata>
<g transform="translate(0.000000,2048.000000) scale(0.100000,-0.100000)"
fill="#000000" stroke="none">
<path d="M9770 20469 c-541 -25 -1137 -101 -1670 -215 -2328 -497 -4398 -1784
-5892 -3664 -894 -1125 -1549 -2453 -1896 -3845 -483 -1934 -403 -3914 236
-5805 616 -1825 1784 -3485 3306 -4699 1517 -1210 3328 -1958 5251 -2170 464
-52 544 -56 1130 -56 575 0 646 4 1095 50 1718 179 3379 806 4815 1818 830
585 1633 1362 2247 2175 1127 1490 1815 3212 2017 5047 52 465 56 544 56 1135
0 593 -4 664 -56 1140 -55 497 -133 924 -259 1415 -859 3353 -3379 6057 -6670
7158 -1173 393 -2467 573 -3710 516z m-1026 -1264 c48 -52 73 -210 56 -349
-15 -124 -57 -246 -146 -426 l-76 -155 -25 -273 c-14 -150 -22 -284 -19 -297
13 -53 88 -14 146 76 76 118 103 237 66 293 -20 31 -56 34 -81 6 -22 -24 -35
-26 -35 -5 0 26 43 62 83 69 48 9 102 -16 128 -58 28 -45 25 -137 -5 -202 -32
-69 -144 -186 -209 -218 -55 -28 -113 -33 -141 -13 -28 21 -35 81 -26 231 5
78 10 161 10 185 l0 44 -23 -21 c-15 -14 -27 -18 -36 -12 -11 6 -8 16 16 47
16 21 33 43 36 49 4 7 12 101 17 210 13 252 34 420 70 560 46 178 103 284 152
284 11 0 29 -11 42 -25z m-2510 -907 c15 -58 13 -60 -180 -183 -102 -65 -183
-123 -180 -129 185 -432 286 -802 286 -1046 0 -196 -59 -350 -178 -461 -97
-92 -265 -176 -388 -195 l-47 -7 6 38 c3 21 9 40 12 44 4 3 44 8 90 12 70 4
96 11 160 43 131 65 226 181 254 314 33 156 -8 432 -115 764 -30 95 -160 436
-169 446 -5 6 -256 -162 -361 -241 -164 -123 -224 -191 -224 -254 0 -97 116
-96 334 1 32 14 60 26 62 26 11 0 2 -69 -11 -87 -19 -27 -109 -56 -223 -74
-72 -11 -86 -10 -127 6 -127 48 -108 185 47 346 95 99 234 208 443 349 201
135 475 308 491 309 7 1 14 -9 18 -21z m3841 -27 c3 -5 -11 -77 -30 -159 -19
-82 -35 -164 -35 -181 0 -48 34 -41 97 21 38 37 56 49 64 41 7 -7 -4 -27 -39
-70 -84 -100 -158 -118 -189 -44 -13 31 -14 48 -4 114 7 43 15 86 18 95 4 10
-8 4 -28 -14 -49 -46 -96 -66 -140 -62 l-37 3 -18 -85 c-9 -47 -22 -91 -27
-97 -5 -7 -27 -13 -49 -13 -37 0 -40 2 -35 23 4 12 25 103 48 202 24 107 48
187 58 198 19 19 77 29 75 12 0 -5 -9 -47 -19 -92 -21 -95 -17 -113 25 -113
68 0 137 64 165 152 9 29 24 59 33 66 19 14 58 16 67 3z m570 -12 c2 -3 2 -15
-2 -28 -4 -18 -10 -21 -27 -16 -50 17 -82 15 -114 -5 -65 -40 -156 -216 -150
-289 3 -33 6 -36 37 -39 30 -3 40 3 91 57 32 33 90 115 131 183 40 68 73 124
75 126 4 6 64 5 70 0 3 -4 -18 -68 -47 -145 -28 -76 -54 -157 -57 -180 -4 -40
-3 -43 20 -43 15 0 44 16 71 40 25 22 48 40 51 40 25 0 -29 -69 -88 -111 -42
-31 -111 -40 -134 -17 -14 14 -16 90 -2 137 9 32 4 28 -60 -41 -100 -109 -168
-134 -227 -84 -25 22 -28 31 -28 83 1 117 117 275 238 322 47 19 137 24 152
10z m-1211 -64 c0 -17 -10 -94 -23 -172 -17 -108 -20 -147 -11 -162 6 -12 16
-21 21 -21 6 0 34 25 62 55 32 36 54 52 60 46 11 -11 -32 -70 -93 -125 -30
-27 -49 -36 -76 -36 -31 0 -37 4 -51 38 -13 32 -14 50 -4 131 11 93 10 125 -4
79 -21 -68 -109 -230 -141 -257 -57 -51 -124 -39 -140 26 -10 36 10 256 31
348 4 20 72 61 83 50 3 -2 -7 -90 -23 -194 -15 -104 -25 -196 -22 -205 8 -21
40 -20 60 2 29 33 96 167 136 277 50 135 52 138 82 146 41 12 54 6 53 -26z
m5731 -31 c230 -44 431 -187 593 -423 201 -292 285 -615 268 -1031 -7 -193
-37 -346 -97 -495 -81 -203 -197 -344 -363 -440 l-85 -50 -1 -45 c0 -25 9
-160 20 -300 11 -140 35 -469 55 -730 19 -261 40 -532 45 -602 5 -70 19 -253
30 -405 11 -153 22 -298 26 -323 6 -45 366 -861 388 -879 6 -5 436 -160 956
-346 520 -185 971 -346 1003 -357 l57 -21 0 -266 0 -266 -110 -60 -110 -60 0
-1631 0 -1631 80 -54 79 -54 0 -755 0 -755 -167 -92 c-92 -50 -914 -502 -1827
-1005 -1328 -732 -1699 -931 -1855 -1000 -436 -192 -729 -308 -1165 -459
-1365 -476 -3707 -974 -5305 -1128 -639 -62 -853 -71 -1707 -71 l-723 0 0 820
0 821 69 302 c38 166 75 329 82 362 13 64 9 162 -46 1340 -25 520 -46 983 -65
1424 -9 201 -13 239 -29 265 -24 39 -55 122 -77 206 -14 55 -18 133 -21 493
l-5 427 98 188 c233 449 422 715 739 1041 403 413 938 805 1537 1127 l148 79
0 1445 0 1445 -61 48 c-101 81 -234 283 -284 432 -32 98 -56 242 -62 375 -17
398 108 748 362 1018 144 153 286 242 505 317 398 136 967 228 1410 229 171 0
233 -3 302 -18 l87 -18 78 67 c109 94 212 154 387 228 689 292 1425 509 2101
618 111 18 183 22 350 23 116 1 235 -3 266 -7 l56 -8 41 64 c55 85 142 164
225 204 152 74 467 191 702 259 427 124 774 164 1020 118z m-6960 -178 c90
-38 107 -181 38 -322 -45 -92 -142 -164 -221 -164 -74 0 -132 74 -132 168 0
113 90 264 183 308 60 28 85 29 132 10z m-543 -197 c4 -30 12 -108 18 -173 6
-66 16 -126 21 -133 18 -21 47 3 80 69 22 44 33 58 42 49 8 -8 3 -27 -19 -73
-49 -103 -106 -149 -151 -120 -19 12 -40 71 -47 132 -15 121 -17 121 -41 5
-33 -162 -60 -216 -128 -251 -55 -29 -106 16 -86 74 13 38 24 40 48 10 26 -32
65 -18 92 33 24 48 53 176 70 313 11 96 12 98 43 112 17 7 36 12 41 10 6 -1
13 -27 17 -57z m-544 -189 c48 -30 72 -88 72 -182 0 -88 -18 -153 -62 -215
-60 -88 -174 -121 -237 -68 -72 61 -82 214 -23 336 37 77 46 89 96 123 48 32
107 34 154 6z m-2233 -1602 c69 -140 117 -194 142 -155 4 6 10 43 13 81 3 43
10 71 18 74 18 6 16 -158 -2 -203 -33 -77 -104 -68 -163 22 -20 29 -37 53 -38
53 -1 0 2 -21 7 -47 5 -27 10 -86 11 -133 1 -67 -2 -91 -16 -112 -16 -23 -62
-48 -88 -48 -18 0 -39 34 -39 62 0 27 3 30 23 23 88 -28 103 -11 93 103 -3 42
-8 77 -10 79 -2 2 -19 -12 -39 -32 -53 -53 -128 -41 -163 28 -22 42 -22 130 1
184 28 69 109 127 130 93 4 -6 15 -2 27 10 12 11 27 20 33 20 6 0 33 -46 60
-102z m-385 -391 c41 -69 85 -138 97 -151 41 -46 59 -19 65 94 5 78 23 50 26
-40 2 -66 -2 -93 -15 -119 -40 -76 -97 -53 -180 73 -29 44 -53 76 -53 70 0 -5
12 -45 26 -89 15 -47 28 -115 31 -165 5 -77 3 -88 -17 -112 -28 -36 -68 -37
-108 -3 -30 25 -125 158 -177 248 l-28 48 18 40 c10 21 21 39 25 39 4 0 49
-69 99 -154 96 -162 121 -192 146 -183 36 14 13 151 -59 355 -20 57 -36 111
-36 120 0 20 40 64 54 59 6 -2 45 -60 86 -130z m-424 -383 c77 -37 152 -156
162 -256 4 -48 1 -66 -22 -113 -39 -79 -114 -131 -130 -90 -3 9 3 19 17 26 78
40 88 99 35 207 -42 84 -125 172 -164 172 -45 0 -64 -26 -64 -87 0 -94 110
-284 339 -588 66 -88 121 -168 121 -178 0 -10 -7 -32 -16 -50 l-17 -32 -28 35
c-367 464 -519 665 -519 690 0 46 12 90 24 90 6 0 36 -34 66 -76 67 -94 79
-102 41 -27 -42 83 -55 141 -42 189 10 38 50 86 81 97 30 11 83 7 116 -9z
m-941 -76 c212 -74 408 -260 519 -491 110 -228 125 -490 40 -658 -87 -173
-281 -260 -486 -218 -94 19 -230 93 -315 172 l-76 72 5 -123 6 -123 99 -105
c117 -126 273 -311 314 -373 51 -78 34 -107 -60 -98 -99 11 -169 43 -231 106
-64 64 -98 138 -129 276 -18 81 -22 89 -87 163 -38 42 -158 168 -267 279
l-198 202 6 38 c9 52 13 63 24 63 5 0 102 -100 216 -222 115 -123 223 -238
241 -257 l33 -35 -6 129 c-6 127 -7 130 -39 172 -98 128 -189 358 -207 523
-27 251 95 471 292 527 72 20 221 11 306 -19z m-342 -2413 c168 -79 238 -270
141 -385 -14 -16 -30 -30 -35 -30 -22 0 -19 32 5 61 30 35 33 67 10 115 -31
64 -166 165 -241 179 -46 8 -73 -15 -73 -62 0 -47 19 -79 86 -145 112 -109
183 -161 507 -371 117 -76 117 -77 117 -116 0 -22 -4 -42 -9 -45 -5 -3 -109
56 -232 132 -123 76 -282 173 -353 217 -70 43 -139 87 -153 99 -26 23 -49 104
-33 119 4 5 50 -19 101 -53 l94 -63 -63 61 c-95 92 -122 168 -84 241 35 70
124 89 215 46z m-23 -600 c17 -25 42 -69 55 -98 27 -59 24 -101 -10 -123 -24
-16 -70 -1 -226 74 -126 60 -143 64 -147 36 -3 -23 112 -142 233 -239 128
-104 125 -100 118 -142 -3 -21 -9 -42 -14 -47 -4 -5 -54 18 -111 51 -218 127
-269 145 -276 97 -4 -26 150 -175 276 -268 73 -54 82 -64 82 -93 0 -17 -4 -34
-9 -38 -11 -6 -379 159 -399 179 -8 8 -12 30 -10 55 l3 42 115 -56 115 -56
-92 93 c-123 124 -146 186 -86 225 20 14 32 14 77 4 28 -6 80 -25 114 -41 l62
-29 -115 112 c-114 112 -133 143 -121 191 8 32 67 60 109 51 18 -4 85 -32 150
-63 64 -30 120 -52 123 -49 11 11 -5 54 -41 107 -32 48 -37 70 -15 70 5 0 23
-20 40 -45z m-73 -984 c9 -21 12 -47 8 -68 -9 -49 -42 -59 -119 -38 -32 8 -60
14 -63 12 -2 -2 13 -17 33 -32 20 -15 56 -54 80 -87 37 -51 44 -67 44 -107 0
-124 -128 -128 -286 -11 -93 70 -152 192 -139 285 7 45 22 56 53 37 10 -7 9
-15 -4 -41 -38 -77 26 -163 183 -240 99 -49 154 -35 137 35 -9 37 -103 125
-224 210 -58 40 -110 78 -116 83 -12 10 -6 71 7 71 5 0 73 -29 152 -64 80 -36
156 -68 170 -71 51 -13 48 36 -7 105 -19 24 -32 48 -29 54 9 13 101 -90 120
-133z m-319 -510 c47 -25 135 -168 175 -283 4 -10 11 -18 17 -18 20 0 60 49
60 72 0 35 -43 117 -89 172 -41 48 -46 75 -11 56 28 -15 78 -82 107 -147 51
-109 33 -207 -43 -239 -127 -53 -369 141 -376 301 -5 95 69 135 160 86z m-673
-452 c39 -5 185 -32 325 -60 225 -44 545 -98 683 -116 26 -3 47 -8 47 -11 0
-19 -54 -92 -68 -92 -43 0 -618 110 -842 161 -371 84 -520 91 -520 25 0 -65
256 -184 790 -371 445 -155 560 -208 560 -255 0 -32 -28 -44 -100 -42 -86 1
-134 10 -440 77 -135 30 -339 75 -455 101 -204 45 -297 56 -322 41 -7 -5 -13
-19 -13 -32 0 -35 63 -83 198 -153 205 -105 344 -160 874 -342 l326 -112 7
-45 c3 -25 5 -47 2 -49 -2 -2 -35 3 -73 12 -175 40 -665 123 -874 148 -280 33
-379 32 -423 -4 l-22 -18 21 -29 c43 -59 191 -120 394 -163 58 -13 107 -24
108 -26 2 -1 -4 -17 -15 -34 -18 -31 -19 -32 -73 -26 -129 13 -371 116 -430
182 -52 60 -52 117 -1 153 103 74 363 69 839 -15 106 -19 199 -34 205 -33 7 0
-33 16 -88 35 -636 224 -857 321 -972 427 -71 65 -68 133 10 174 24 13 55 17
127 16 78 -1 170 -17 505 -87 467 -97 485 -100 485 -93 0 3 -26 14 -57 25
-662 230 -1007 373 -1094 453 -31 29 -39 43 -39 71 0 38 27 80 63 100 47 25
198 28 352 7z m962 -1774 c23 -77 43 -141 43 -141 1 -8 -63 -8 -69 0 -11 14
-81 247 -81 270 0 13 7 17 32 14 l32 -3 43 -140z m202 -680 c179 -43 317 -188
393 -412 15 -46 28 -95 28 -108 0 -22 -5 -25 -35 -25 -31 0 -35 3 -35 28 -1
97 -65 270 -123 330 -114 119 -281 129 -912 56 -121 -14 -229 -29 -240 -33
-13 -5 11 -12 75 -20 403 -54 742 -188 831 -330 32 -50 36 -88 15 -130 -39
-74 -141 -103 -535 -151 -284 -35 -349 -46 -367 -61 -21 -17 -5 -37 44 -53 58
-19 259 -46 350 -47 37 0 75 -4 85 -8 17 -6 16 -9 -6 -41 -22 -34 -26 -35 -81
-33 -78 3 -256 40 -339 70 -101 38 -131 89 -86 147 44 56 134 81 448 126 427
60 499 96 407 197 -117 130 -592 270 -981 289 -133 7 -136 8 -155 35 -22 29
-25 45 -11 53 20 13 689 102 961 129 90 9 211 5 269 -8z"/>
<path d="M8701 19177 c-16 -20 -48 -165 -71 -327 -23 -161 -50 -433 -44 -439
5 -6 57 110 84 189 62 181 97 452 71 548 -12 44 -21 51 -40 29z"/>
<path d="M14810 17979 c-311 -38 -805 -195 -1165 -369 -159 -77 -222 -126
-284 -224 l-40 -63 -273 -6 c-377 -8 -531 -29 -938 -132 -447 -112 -873 -245
-1325 -415 -335 -125 -505 -210 -672 -336 l-85 -64 -70 21 c-267 79 -537 87
-943 28 -447 -65 -842 -187 -1062 -328 -169 -108 -321 -309 -406 -536 -100
-267 -93 -693 15 -896 55 -104 160 -191 277 -230 l64 -21 -7 -787 c-19 -2135
-24 -2433 -38 -2446 -7 -7 -137 -81 -288 -165 -437 -242 -664 -392 -881 -582
-562 -491 -952 -974 -1223 -1516 l-57 -114 3 -311 c3 -310 3 -312 30 -386 27
-74 95 -188 105 -177 3 3 22 -8 41 -25 68 -60 78 -61 320 -45 119 8 267 18
327 21 l110 6 -27 -24 c-32 -30 -44 -32 -446 -53 -224 -12 -306 -13 -316 -5
-10 9 -15 8 -18 -1 -5 -14 7 -496 46 -1883 14 -478 28 -997 32 -1152 l7 -283
-31 0 c-38 0 -33 21 -72 -280 l-30 -235 0 -656 0 -656 138 -7 c408 -19 1669
45 2232 115 994 122 2238 359 3360 639 979 244 1913 571 2775 971 245 113 398
192 1125 576 702 371 1882 994 2332 1231 l298 157 0 606 0 606 -65 44 -65 44
0 1640 c0 1580 -1 1642 -19 1681 -36 78 -147 134 -273 137 -37 1 -68 3 -68 4
0 1 122 61 270 134 l271 133 -3 110 -3 110 -875 309 c-481 169 -902 318 -934
330 l-59 22 -159 340 c-87 187 -191 408 -230 490 l-71 150 -18 235 c-10 129
-34 449 -54 710 -20 261 -56 742 -80 1069 -25 327 -42 598 -38 602 5 4 42 20
84 36 100 39 174 89 251 172 123 131 215 327 239 508 19 143 6 443 -24 583
-28 127 -59 224 -89 285 -71 139 -217 316 -339 410 -73 57 -170 109 -239 130
-67 19 -249 27 -350 14z m-1165 -502 c86 -45 254 -215 338 -342 196 -298 302
-629 327 -1019 8 -138 -1 -412 -16 -459 -6 -18 -13 -19 -83 -14 -75 6 -157 29
-221 62 -31 16 -32 19 -26 58 3 23 9 105 12 182 10 236 -32 473 -122 685 -85
200 -179 335 -366 524 l-138 139 36 58 c19 32 63 83 96 114 69 62 66 62 163
12z m-3815 -1092 c19 -3 76 -18 125 -32 107 -32 179 -78 281 -184 298 -310
429 -800 363 -1359 -5 -47 -12 -94 -14 -106 -4 -17 -217 -203 -244 -212 -5 -2
2 24 15 56 58 144 85 398 66 629 -43 525 -258 930 -642 1206 -21 15 -22 17 -5
13 11 -2 36 -7 55 -11z m5220 -1997 c0 -772 4 -1454 10 -1558 24 -450 61
-1291 58 -1318 l-3 -30 -792 397 -792 396 260 498 260 498 11 1172 c6 645 11
1173 12 1174 1 1 22 -3 46 -9 25 -6 101 -11 170 -11 145 1 209 13 530 102 118
32 218 60 223 60 4 1 7 -617 7 -1371z m-1024 808 c-3 -248 -9 -779 -12 -1181
l-6 -730 -80 -152 c-43 -84 -81 -153 -83 -153 -2 0 -138 47 -302 105 -278 99
-301 105 -338 96 -94 -24 -792 -243 -1155 -363 -797 -263 -1567 -540 -2499
-897 -145 -56 -265 -100 -266 -99 -4 3 -145 2049 -145 2089 0 24 4 26 83 38
366 55 793 243 1127 494 58 44 133 105 168 135 l63 55 152 -7 c174 -7 388 5
562 34 282 46 1128 302 1562 473 435 172 716 313 987 495 l88 60 50 -21 51
-21 -7 -450z m-5729 336 c169 -54 321 -268 349 -488 l7 -58 -56 57 c-77 79
-163 119 -254 119 -87 0 -141 -23 -216 -92 -113 -103 -187 -262 -209 -450 -7
-55 -15 -100 -19 -100 -11 0 -56 130 -75 220 -14 63 -18 130 -19 260 0 155 3
183 23 247 46 148 134 237 277 283 74 23 124 24 192 2z m160 -443 c66 -31 161
-130 207 -214 44 -81 45 -90 32 -405 -7 -179 -6 -213 9 -269 26 -100 80 -167
173 -215 l32 -17 0 -1470 c0 -1324 2 -1513 20 -1888 11 -229 27 -562 35 -741
8 -179 17 -364 20 -412 3 -49 3 -88 0 -88 -10 0 -1585 790 -1585 795 0 3 117
230 259 503 l259 497 12 1450 c13 1643 21 1985 46 2090 44 184 165 356 282
400 50 20 140 13 199 -16z m5079 -2047 c153 -55 279 -103 281 -109 2 -5 -73
-156 -167 -335 -93 -179 -170 -331 -170 -337 0 -6 375 -198 833 -428 l834
-416 464 226 c255 124 468 232 472 239 6 9 -14 62 -57 152 -36 77 -64 141 -62
144 4 4 161 -50 606 -208 74 -26 297 -105 495 -175 603 -212 646 -228 638
-236 -25 -25 -1450 -616 -2353 -976 -1050 -418 -1474 -575 -2205 -816 -599
-197 -776 -250 -1201 -356 -775 -194 -1345 -311 -1834 -376 -1615 -217 -2037
-243 -3680 -231 -481 3 -894 9 -918 12 l-42 6 73 142 c215 415 469 748 884
1157 384 381 593 535 1125 830 101 55 207 115 236 131 l54 31 -91 -174 c-50
-96 -162 -311 -249 -479 -88 -168 -158 -310 -156 -315 3 -6 377 -197 833 -425
l829 -414 60 27 c59 27 723 349 832 404 37 19 54 33 52 44 -1 9 -142 314 -312
677 l-309 660 -22 321 c-14 194 -19 325 -13 331 14 14 869 339 1399 532 660
240 1542 537 2115 713 173 53 333 102 355 110 22 7 52 14 66 14 15 1 152 -43
305 -97z m3511 -2059 c-246 -152 -398 -365 -492 -688 -14 -49 -26 -90 -28 -91
-1 -1 -56 -29 -122 -62 -276 -137 -700 -316 -1395 -587 -201 -79 -471 -185
-600 -237 -478 -193 -970 -359 -1645 -556 -255 -75 -1181 -328 -1302 -357
l-71 -17 -47 28 -48 27 59 30 c113 57 180 141 313 388 107 199 188 268 326
277 114 7 161 -24 299 -197 112 -141 147 -166 231 -166 127 0 255 100 360 280
156 270 191 314 285 364 136 72 207 51 369 -108 110 -109 160 -140 226 -141
79 0 175 67 258 180 14 19 66 115 116 213 101 199 133 249 187 297 113 98 185
78 332 -93 140 -164 216 -197 327 -143 101 50 151 129 235 371 59 171 78 210
122 261 37 42 118 84 163 84 48 0 98 -42 187 -157 46 -58 99 -119 119 -135 73
-59 152 -45 239 42 51 51 94 128 173 312 58 133 129 251 175 290 25 20 141 79
587 297 137 67 175 63 62 -6z m251 -260 c55 -41 67 -69 66 -151 0 -63 -5 -86
-27 -129 -37 -72 -76 -114 -137 -147 -44 -24 -61 -28 -106 -24 -89 8 -137 69
-138 173 0 193 218 370 342 278z m-6589 -1948 c49 -23 211 -169 200 -180 -3
-2 -47 3 -99 12 -108 19 -413 22 -492 6 -27 -6 -48 -7 -48 -3 0 15 122 121
163 142 106 54 193 61 276 23z m-1540 -215 c67 -31 114 -73 192 -173 40 -51
84 -105 100 -122 l28 -30 -103 -108 -104 -108 -113 -9 c-63 -6 -266 -21 -452
-35 l-339 -24 -49 32 c-27 18 -49 34 -48 37 0 3 22 15 49 28 78 37 174 118
314 267 145 154 209 206 293 241 75 30 169 32 232 4z m1701 -9 c549 -121 984
-511 1160 -1040 61 -181 75 -276 74 -496 0 -158 -4 -208 -23 -295 -68 -320
-206 -576 -430 -800 -229 -229 -503 -374 -826 -437 -129 -25 -414 -25 -550 1
-304 56 -581 197 -798 405 -149 143 -242 269 -330 446 -82 165 -120 292 -143
474 -41 331 6 620 147 906 230 466 667 778 1204 859 17 2 118 3 225 1 152 -3
216 -8 290 -24z m-3327 -140 c26 -12 80 -54 120 -93 l72 -69 -45 5 c-212 28
-384 31 -512 10 -21 -4 -38 -2 -38 3 0 5 23 35 51 66 76 86 126 108 234 104
49 -2 84 -9 118 -26z m182 -210 c136 -30 238 -66 371 -132 693 -339 1029
-1137 792 -1878 -149 -466 -520 -842 -985 -997 -460 -154 -959 -90 -1358 174
-354 235 -593 592 -677 1015 -17 89 -22 147 -22 282 -1 228 27 381 105 580
186 478 625 850 1125 954 139 29 146 29 364 26 150 -3 216 -8 285 -24z m9914
-628 c22 -16 39 -32 37 -38 -3 -10 -391 -228 -916 -515 -567 -309 -1151 -614
-1750 -913 -1331 -665 -1858 -894 -2745 -1193 -1391 -470 -2521 -690 -4505
-878 -385 -37 -537 -45 -1105 -56 -875 -17 -1115 -17 -1115 0 0 8 12 112 26
230 35 274 47 295 71 123 7 -56 22 -116 35 -143 29 -56 45 -61 288 -84 453
-42 1312 -26 1885 34 312 33 412 44 622 71 595 75 1152 166 1848 300 712 137
1108 239 1735 448 499 167 962 345 1530 589 791 339 2537 1230 3829 1953 97
54 179 99 183 99 4 0 26 -12 47 -27z"/>
<path d="M13750 15337 c-345 -231 -1067 -539 -1680 -716 -238 -69 -636 -162
-795 -186 -126 -20 -460 -30 -539 -17 l-59 9 -96 -84 c-149 -131 -346 -265
-516 -351 -162 -81 -416 -177 -603 -228 -54 -14 -100 -29 -105 -33 -4 -4 8
-205 27 -447 19 -241 47 -599 62 -794 15 -195 30 -358 33 -361 3 -4 83 22 176
58 217 82 707 264 850 315 415 149 563 201 820 290 605 208 1195 398 1688 543
l258 75 231 -70 c126 -39 236 -69 243 -67 6 3 26 30 44 61 l31 56 -2 995 -3
995 -65 -43z"/>
<path d="M9775 7246 c-218 -103 -224 -411 -10 -521 149 -76 328 -11 398 144
29 64 28 169 -2 232 -29 61 -84 116 -146 145 -70 33 -170 33 -240 0z"/>
<path d="M6623 6930 c-98 -49 -152 -128 -161 -236 -7 -92 18 -155 88 -226 43
-43 69 -60 110 -72 110 -33 200 -12 284 65 71 65 100 134 94 229 -9 156 -118
261 -278 268 -68 3 -81 0 -137 -28z"/>
<path d="M8059 17919 c-37 -40 -60 -114 -66 -216 -6 -89 6 -136 38 -153 36
-20 95 23 123 90 19 48 38 185 30 229 -15 86 -70 108 -125 50z"/>
<path d="M6962 17547 c-31 -33 -42 -79 -42 -177 1 -101 23 -175 62 -203 26
-19 28 -19 53 -3 42 28 65 89 65 176 0 89 -20 183 -45 210 -24 27 -67 25 -93
-3z"/>
<path d="M4722 16033 c-41 -16 -53 -112 -23 -180 23 -49 52 -69 80 -54 24 14
31 32 31 90 0 60 -16 111 -42 134 -21 18 -25 19 -46 10z"/>
<path d="M2811 15109 c-81 -24 -136 -81 -187 -194 -39 -87 -46 -247 -15 -359
122 -443 559 -797 865 -701 145 46 225 199 213 405 -13 220 -116 431 -297 611
-191 190 -419 284 -579 238z"/>
<path d="M2855 13590 c4 -19 24 -72 46 -116 45 -95 112 -163 186 -188 122 -42
106 -18 -180 279 l-58 60 6 -35z"/>
<path d="M2266 10554 c-19 -18 -19 -17 -5 -48 7 -14 35 -41 64 -60 58 -38 169
-96 185 -96 15 0 -44 112 -80 153 -52 60 -131 85 -164 51z"/>
</g>
</svg>
